<svg id="schedule" xmlns="http://www.w3.org/2000/svg" width="38" height="37" viewBox="0 0 38 37">
  <path id="Path_3" data-name="Path 3" d="M36.491,2.961h-4.54V1.189a1.116,1.116,0,1,0-2.227,0V2.961H26.014V1.189a1.116,1.116,0,1,0-2.227,0V2.961H20.076V1.189a1.116,1.116,0,1,0-2.227,0V2.961H14.213V1.189a1.116,1.116,0,1,0-2.227,0V2.961H8.275V1.189A1.153,1.153,0,0,0,7.162,0,1.153,1.153,0,0,0,6.049,1.189V2.961H1.509A1.565,1.565,0,0,0,0,4.573V35.388A1.565,1.565,0,0,0,1.509,37H36.491A1.565,1.565,0,0,0,38,35.388V4.573a1.565,1.565,0,0,0-1.509-1.612ZM6.049,5.34v.975A1.153,1.153,0,0,0,7.162,7.5,1.153,1.153,0,0,0,8.275,6.315V5.34h3.711v.975a1.116,1.116,0,1,0,2.227,0V5.34H17.85v.975a1.116,1.116,0,1,0,2.227,0V5.34h3.711v.975a1.116,1.116,0,1,0,2.227,0V5.34h3.711v.975a1.116,1.116,0,1,0,2.227,0V5.34h3.822V8.575H2.227V5.34ZM2.227,34.621V10.954H35.773V34.621Zm0,0" transform="translate(0 0)" fill="#fff"/>
  <path id="Path_4" data-name="Path 4" d="M81.454,307.852H79.48a1.192,1.192,0,0,0,0,2.379h1.973a1.192,1.192,0,0,0,0-2.379Zm0,0" transform="translate(-72.551 -283.443)" fill="#fff"/>
  <path id="Path_5" data-name="Path 5" d="M378.27,307.852H376.3a1.192,1.192,0,0,0,0,2.379h1.973a1.192,1.192,0,0,0,0-2.379Zm0,0" transform="translate(-347.338 -283.443)" fill="#fff"/>
  <path id="Path_6" data-name="Path 6" d="M278.5,307.852h-1.973a1.192,1.192,0,0,0,0,2.379H278.5a1.192,1.192,0,0,0,0-2.379Zm0,0" transform="translate(-254.969 -283.443)" fill="#fff"/>
  <path id="Path_7" data-name="Path 7" d="M180.95,307.852h-1.973a1.192,1.192,0,0,0,0,2.379h1.973a1.192,1.192,0,0,0,0-2.379Zm0,0" transform="translate(-164.662 -283.443)" fill="#fff"/>
  <path id="Path_8" data-name="Path 8" d="M81.454,237.879H79.48a1.192,1.192,0,0,0,0,2.379h1.973a1.192,1.192,0,0,0,0-2.379Zm0,0" transform="translate(-72.551 -219.018)" fill="#fff"/>
  <path id="Path_9" data-name="Path 9" d="M378.27,237.879H376.3a1.192,1.192,0,0,0,0,2.379h1.973a1.192,1.192,0,0,0,0-2.379Zm0,0" transform="translate(-347.338 -219.018)" fill="#fff"/>
  <path id="Path_10" data-name="Path 10" d="M278.5,237.879h-1.973a1.192,1.192,0,0,0,0,2.379H278.5a1.192,1.192,0,0,0,0-2.379Zm0,0" transform="translate(-254.969 -219.018)" fill="#fff"/>
  <path id="Path_11" data-name="Path 11" d="M180.95,237.879h-1.973a1.192,1.192,0,0,0,0,2.379h1.973a1.192,1.192,0,0,0,0-2.379Zm0,0" transform="translate(-164.662 -219.018)" fill="#fff"/>
  <path id="Path_12" data-name="Path 12" d="M81.454,167.906H79.48a1.192,1.192,0,0,0,0,2.379h1.973a1.192,1.192,0,0,0,0-2.379Zm0,0" transform="translate(-72.551 -154.593)" fill="#fff"/>
  <path id="Path_13" data-name="Path 13" d="M378.27,167.906H376.3a1.192,1.192,0,0,0,0,2.379h1.973a1.192,1.192,0,0,0,0-2.379Zm0,0" transform="translate(-347.338 -154.593)" fill="#fff"/>
  <path id="Path_14" data-name="Path 14" d="M278.5,167.906h-1.973a1.192,1.192,0,0,0,0,2.379H278.5a1.192,1.192,0,0,0,0-2.379Zm0,0" transform="translate(-254.969 -154.593)" fill="#fff"/>
  <path id="Path_15" data-name="Path 15" d="M180.95,167.906h-1.973a1.192,1.192,0,0,0,0,2.379h1.973a1.192,1.192,0,0,0,0-2.379Zm0,0" transform="translate(-164.662 -154.593)" fill="#fff"/>
  <path id="Path_16" data-name="Path 16" d="M81.384,378.723H79.41a1.192,1.192,0,0,0,0,2.379h1.973a1.192,1.192,0,0,0,0-2.379Zm0,0" transform="translate(-72.486 -348.695)" fill="#fff"/>
  <path id="Path_17" data-name="Path 17" d="M378.2,378.723h-1.973a1.192,1.192,0,0,0,0,2.379H378.2a1.192,1.192,0,0,0,0-2.379Zm0,0" transform="translate(-347.273 -348.695)" fill="#fff"/>
  <path id="Path_18" data-name="Path 18" d="M278.427,378.723h-1.973a1.192,1.192,0,0,0,0,2.379h1.973a1.192,1.192,0,0,0,0-2.379Zm0,0" transform="translate(-254.905 -348.695)" fill="#fff"/>
  <path id="Path_19" data-name="Path 19" d="M180.88,378.723h-1.973a1.192,1.192,0,0,0,0,2.379h1.973a1.192,1.192,0,0,0,0-2.379Zm0,0" transform="translate(-164.598 -348.695)" fill="#fff"/>
</svg>
