
<svg xmlns="http://www.w3.org/2000/svg" width="144" height="144" viewBox="0 0 3810 3810" shape-rendering="geometricPrecision" text-rendering="geometricPrecision" image-rendering="optimizeQuality" fill-rule="evenodd" clip-rule="evenodd"><defs><style>.fil0{fill:#000000}</style></defs><g id="_995928288"><path class="fil0" d="M1676 3124h-152c-20 0-38-8-52-20 41-37 74-82 96-132h108c84 0 153-69 153-153v-122c310-110 533-407 533-754v-571c0-126-103-229-228-229V838c0-84 68-152 152-152s152 68 152 152v381h174c72 0 131 59 131 132v592c0 398-326 724-724 724h-38v152c0 168-137 305-305 305zm-304-1981V838c0-84 68-152 152-152 41 0 77 16 105 42-18 33-29 70-29 110v305h-228z"/><path class="fil0" d="M2134 3124h-153c-20 0-38-8-52-20 41-37 74-82 96-132h109c83 0 152-69 152-153v-122c310-110 533-407 533-754v-571c0-126-102-229-228-229V838c0-84 68-152 152-152s153 68 153 152v381h173c72 0 131 59 131 132v592c0 398-325 724-723 724h-39v152c0 168-137 305-304 305z"/><path class="fil0" d="M1448 1453c31 0 57 26 57 58v266c0 32-26 57-57 57-32 0-57-25-57-57v-266c0-32 25-58 57-58zm-229 1671h-152c-42 0-76-34-76-76s34-76 76-76h152c84 0 153-69 153-153v-152h-38c-399 0-724-326-724-724v-592c0-73 59-132 131-132h173V838c0-84 69-152 153-152s152 68 152 152v381h457V838c0-84 69-152 153-152s152 68 152 152v381h173c73 0 132 59 132 132v592c0 398-326 724-724 724h-38v152c0 168-137 305-305 305zm-76-1905V838c0-42-34-76-76-76s-76 34-76 76v457H762c-42 0-76 35-76 77v571c0 356 291 648 647 648h229c356 0 648-292 648-648v-571c0-42-34-77-76-77h-229V838c0-42-34-76-76-76s-76 34-76 76v457h-610v-76zm603 435c77 78 121 184 121 295 0 231-188 419-419 419-232 0-419-188-419-419 0-111 43-217 121-295 11-12 25-18 42-18 31 0 57 25 57 57 0 16-6 30-17 40-55 55-89 131-89 216 0 168 136 304 305 304 168 0 305-136 305-304 0-85-34-161-90-216-10-10-16-24-16-40 0-32 25-57 57-57 16 0 31 7 42 18z"/></g></svg>